<svg xmlns="http://www.w3.org/2000/svg" viewBox="0 0 256 256">
  <defs>
    <linearGradient id="grad" x1="0%" y1="0%" x2="100%" y2="100%">
      <stop offset="0%" stop-color="#0b3d91" />
      <stop offset="100%" stop-color="#3775e0" />
    </linearGradient>
  </defs>
  <rect width="256" height="256" rx="48" fill="url(#grad)" />
  <path d="M80 128c0-26.5 21.5-48 48-48s48 21.5 48 48-21.5 48-48 48-48-21.5-48-48zm116 0c0-38-30.8-68.8-68.8-68.8S58.4 90 58.4 128 89.2 196.8 127.2 196.8 196 166 196 128z" fill="white" opacity="0.9"/>
  <path d="M83 155.6c5.2 2.3 11.1 3.7 17.3 3.7 21.1 0 38.2-17.1 38.2-38.2 0-6.2-1.4-12.1-3.7-17.3" fill="none" stroke="white" stroke-width="16" stroke-linecap="round"/>
</svg>
